<svg width="22" height="22" viewBox="0 0 22 22" fill="none" xmlns="http://www.w3.org/2000/svg">
<g id="heroicons-outline/beaker">
<path id="Vector" d="M8.9374 2.84541V8.08319C8.9374 8.63019 8.7201 9.1548 8.3333 9.54159L4.58323 13.2917M8.9374 2.84541C8.70718 2.86681 8.478 2.89176 8.2499 2.92021M8.9374 2.84541C9.61641 2.78227 10.3044 2.75 10.9999 2.75C11.6954 2.75 12.3834 2.78227 13.0624 2.84541M13.0624 2.84541V8.08318C13.0624 8.63019 13.2797 9.1548 13.6665 9.54159L18.1499 14.025M13.0624 2.84541C13.2926 2.86681 13.5218 2.89176 13.7499 2.92021M18.1499 14.025L16.7106 14.3848C14.8001 14.8625 12.7614 14.6307 10.9999 13.75C9.23844 12.8693 7.19971 12.6375 5.28914 13.1152L4.58323 13.2917M18.1499 14.025L19.4353 15.3104C20.5645 16.4396 20.0316 18.3519 18.4574 18.6206C16.0334 19.0344 13.5418 19.25 10.9999 19.25C8.45797 19.25 5.96639 19.0344 3.54243 18.6206C1.96823 18.3519 1.4353 16.4396 2.56454 15.3104L4.58323 13.2917" stroke="white" stroke-width="0.875" stroke-linecap="round" stroke-linejoin="round"/>
</g>
</svg>
