<svg width="22" height="23" viewBox="0 0 22 23" fill="none" xmlns="http://www.w3.org/2000/svg">
<g id="heroicons-outline/beaker">
<path id="Vector" d="M8.93752 3.08704V8.32482C8.93752 8.87183 8.72022 9.39644 8.33343 9.78323L4.58335 13.5333M8.93752 3.08704C8.7073 3.10845 8.47812 3.1334 8.25002 3.16185M8.93752 3.08704C9.61654 3.02391 10.3045 2.99164 11 2.99164C11.6955 2.99164 12.3835 3.02391 13.0625 3.08704M13.0625 3.08704V8.32482C13.0625 8.87183 13.2798 9.39644 13.6666 9.78323L18.15 14.2666M13.0625 3.08704C13.2927 3.10845 13.5219 3.1334 13.75 3.16185M18.15 14.2666L16.7108 14.6264C14.8002 15.1041 12.7615 14.8724 11 13.9916C9.23856 13.1109 7.19983 12.8792 5.28927 13.3568L4.58335 13.5333M18.15 14.2666L19.4354 15.552C20.5646 16.6812 20.0317 18.5935 18.4575 18.8623C16.0335 19.2761 13.5419 19.4916 11 19.4916C8.45809 19.4916 5.96651 19.2761 3.54255 18.8623C1.96835 18.5935 1.43543 16.6812 2.56466 15.552L4.58335 13.5333" stroke="#0369A1" strokeWidth="0.875" strokeLinecap="round" strokeLinejoin="round"/>
</g>
</svg>
