<svg width="24" height="25" viewBox="0 0 24 25" fill="none" xmlns="http://www.w3.org/2000/svg">
<g id="heroicons-outline/computer-desktop">
<path id="Vector" d="M9 17.8027V18.81C9 19.6057 8.68393 20.3687 8.12132 20.9314L7.5 21.5527H16.5L15.8787 20.9314C15.3161 20.3687 15 19.6057 15 18.81V17.8027M21 5.80267V15.5527C21 16.7953 19.9926 17.8027 18.75 17.8027H5.25C4.00736 17.8027 3 16.7953 3 15.5527V5.80267M21 5.80267C21 4.56003 19.9926 3.55267 18.75 3.55267H5.25C4.00736 3.55267 3 4.56003 3 5.80267M21 5.80267V12.5527C21 13.7953 19.9926 14.8027 18.75 14.8027H5.25C4.00736 14.8027 3 13.7953 3 12.5527V5.80267" stroke="#0369A1" stroke-width="1.5" stroke-linecap="round" stroke-linejoin="round"/>
</g>
</svg>
