<svg width="24" height="25" viewBox="0 0 24 25" fill="none" xmlns="http://www.w3.org/2000/svg">
<g id="heroicons-solid/user-circle">
<path id="Union" fill-rule="evenodd" clip-rule="evenodd" d="M18.6854 19.5109C20.5721 17.7329 21.75 15.2109 21.75 12.4138C21.75 7.02904 17.3848 2.66382 12 2.66382C6.61522 2.66382 2.25 7.02904 2.25 12.4138C2.25 15.2109 3.42785 17.7329 5.31463 19.5109C7.06012 21.1558 9.41234 22.1638 12 22.1638C14.5877 22.1638 16.9399 21.1558 18.6854 19.5109ZM6.14512 18.2261C7.51961 16.5116 9.63161 15.4138 12 15.4138C14.3684 15.4138 16.4804 16.5116 17.8549 18.2261C16.3603 19.7316 14.289 20.6638 12 20.6638C9.711 20.6638 7.63973 19.7316 6.14512 18.2261ZM15.75 9.41382C15.75 11.4849 14.0711 13.1638 12 13.1638C9.92893 13.1638 8.25 11.4849 8.25 9.41382C8.25 7.34275 9.92893 5.66382 12 5.66382C14.0711 5.66382 15.75 7.34275 15.75 9.41382Z" fill="#0369A1"/>
</g>
</svg>
