<svg width="24" height="24" viewBox="0 0 24 24" fill="none" xmlns="http://www.w3.org/2000/svg">
<g id="heroicons-mini/eye">
<g id="Union">
<path d="M12 15C13.6569 15 15 13.6568 15 12C15 10.3431 13.6569 8.99998 12 8.99998C10.3431 8.99998 9 10.3431 9 12C9 13.6568 10.3431 15 12 15Z" fill="white"/>
<path fill-rule="evenodd" clip-rule="evenodd" d="M0.797106 12.7084C0.62087 12.2505 0.621022 11.7427 0.797532 11.2849C2.53054 6.78943 6.89195 3.59998 11.9983 3.59998C17.1072 3.59998 21.4704 6.79258 23.2016 11.2915C23.3779 11.7495 23.3777 12.2572 23.2012 12.7151C21.4682 17.2105 17.1068 20.4 12.0004 20.4C6.89157 20.4 2.52837 17.2074 0.797106 12.7084ZM16.8004 12C16.8004 14.6509 14.6514 16.8 12.0004 16.8C9.34948 16.8 7.20045 14.6509 7.20045 12C7.20045 9.34901 9.34948 7.19998 12.0004 7.19998C14.6514 7.19998 16.8004 9.34901 16.8004 12Z" fill="white"/>
</g>
</g>
</svg>
