<svg width="146" height="131" viewBox="0 0 146 131" fill="none" xmlns="http://www.w3.org/2000/svg">
<rect width="145.296" height="131" rx="33.7897" fill="url(#paint0_linear_1881_38786)"/>
<path d="M54.8461 39.8817C52.2443 39.8817 50.1691 40.5631 48.6204 41.9259C47.0717 43.2268 46.2974 45.0233 46.2974 47.3154C46.2974 49.6075 47.0407 51.6208 48.5275 53.3553C50.0762 55.0898 52.678 57.4438 56.3329 60.4173C59.9878 63.3908 62.2489 65.2493 63.1162 65.9926C68.072 70.0812 70.5499 74.8512 70.5499 80.3026C70.5499 85.754 68.7534 90.0903 65.1604 93.3116C61.5675 96.5329 56.4568 98.1435 49.8284 98.1435C44.8726 98.1435 40.7221 97.2143 37.3769 95.3559C34.0936 93.4355 32.452 90.6788 32.452 87.0859C32.452 84.546 33.9388 81.7893 36.9123 78.8158C37.9654 83.2761 39.8548 86.6212 42.5805 88.8514C45.3681 91.0195 48.2487 92.1036 51.2222 92.1036C54.2576 92.1036 56.7355 91.3602 58.6559 89.8735C60.6383 88.3868 61.6294 86.4354 61.6294 84.0194C61.6294 81.9132 61.2268 80.2716 60.4214 79.0946C59.6781 77.8556 59.0896 76.9574 58.6559 76.3999C58.2223 75.7804 57.386 74.9441 56.147 73.891C54.9081 72.7759 53.9479 71.9706 53.2665 71.475C52.647 70.9175 51.408 69.9263 49.5496 68.5015C47.6912 67.0148 46.2974 65.8997 45.3681 65.1563C40.2265 61.1297 37.6556 56.2978 37.6556 50.6606C37.6556 45.0233 39.576 40.7489 43.4168 37.8374C47.2575 34.8639 52.5231 33.3771 59.2135 33.3771C67.5764 33.3771 71.7579 36.2577 71.7579 42.0189C71.7579 44.7446 70.3331 47.2225 67.4835 49.4526C64.8817 43.072 60.6692 39.8817 54.8461 39.8817ZM94.6274 94.0161C97.5468 94.0161 99.8355 92.4303 101.493 89.2585C103.187 86.0508 104.034 81.996 104.034 77.0942C104.034 73.8144 103.638 71.0932 102.845 68.9307C102.088 66.7681 101.007 65.6868 99.6012 65.6868C98.1956 65.6868 96.5737 67.0925 94.7355 69.9038C92.9334 72.7151 91.3295 76.1571 89.9238 80.2299C88.5182 84.2667 87.7253 87.925 87.5451 91.2048C90.1041 93.079 92.4648 94.0161 94.6274 94.0161ZM81.3818 95.9624C82.1387 91.2048 83.0217 84.0865 84.0309 74.6073C85.0762 65.0921 85.5988 59.019 85.5988 56.3879C85.5988 53.7568 85.5267 51.8466 85.3825 50.6572C85.2383 49.4317 84.932 48.3685 84.4634 47.4674C85.3645 46.6745 86.5178 46.278 87.9235 46.278C89.3291 46.278 90.3203 46.7106 90.897 47.5756C91.5097 48.4406 91.8161 49.8823 91.8161 51.9006C91.8161 53.919 90.6267 62.6953 88.2479 78.2296C89.8698 72.9674 91.8882 68.6063 94.303 65.1462C96.7178 61.6861 98.9344 59.9561 100.953 59.9561C103.404 59.9561 105.458 61.2536 107.116 63.8487C108.81 66.4077 109.657 70.2642 109.657 75.4183C109.657 81.0048 108.504 86.0147 106.197 90.4479C105.044 92.6105 103.494 94.3585 101.548 95.6921C99.6373 97.0257 97.4747 97.6924 95.0599 97.6924C91.9602 97.6924 89.3291 96.485 87.1666 94.0702C86.9504 95.2596 86.626 96.1066 86.1935 96.6112C85.761 97.1158 85.0762 97.3681 84.1391 97.3681C83.238 97.3681 82.3189 96.8995 81.3818 95.9624Z" fill="white"/>
<defs>
<linearGradient id="paint0_linear_1881_38786" x1="72.6478" y1="0" x2="72.6478" y2="131" gradientUnits="userSpaceOnUse">
<stop stop-color="#005487"/>
<stop offset="1" stop-color="#63ADD1"/>
</linearGradient>
</defs>
</svg>
