<svg width="24" height="25" viewBox="0 0 24 25" fill="none" xmlns="http://www.w3.org/2000/svg">
<g id="heroicons-outline/gift-top">
<path id="Vector" d="M12 4.47491V20.9749M2.25 12.7249H21.75M6.375 17.9749C9.06739 17.9749 11.25 15.7923 11.25 13.0999V12.7249M17.625 17.9749C14.9326 17.9749 12.75 15.7923 12.75 13.0999V12.7249M3.75 20.9749H20.25C21.0784 20.9749 21.75 20.3033 21.75 19.4749V5.97491C21.75 5.14649 21.0784 4.47491 20.25 4.47491H3.75C2.92157 4.47491 2.25 5.14649 2.25 5.97491V19.4749C2.25 20.3033 2.92157 20.9749 3.75 20.9749ZM16.3713 11.5356C14.9623 12.9446 12.1286 12.5963 12.1286 12.5963C12.1286 12.5963 11.7803 9.76263 13.1893 8.35362C14.068 7.47494 15.4926 7.47494 16.3713 8.35362C17.2499 9.2323 17.2499 10.6569 16.3713 11.5356ZM10.773 8.35365C12.182 9.76266 11.8336 12.5963 11.8336 12.5963C11.8336 12.5963 9 12.9446 7.59099 11.5356C6.71231 10.657 6.71231 9.23233 7.59099 8.35365C8.46967 7.47497 9.89429 7.47497 10.773 8.35365Z" stroke="#0369A1" stroke-width="1.5" stroke-linecap="round" stroke-linejoin="round"/>
</g>
</svg>
