<svg width="20" height="20" viewBox="0 0 20 20" fill="none" xmlns="http://www.w3.org/2000/svg">
<g id="heroicons-outline/cube-transparent">
<path id="Vector" d="M17.6213 6.84568L15.8372 5.80498M17.6213 6.84568V8.62975M17.6213 6.84568L15.8372 7.88639M3.34875 6.84568L5.13282 5.80498M3.34875 6.84568L5.13282 7.88639M3.34875 6.84568V8.62975M10.485 11.0085L12.2691 9.9678M10.485 11.0085L8.70095 9.9678M10.485 11.0085V12.7926M10.485 18.1448L12.2691 17.1041M10.485 18.1448V16.3607M10.485 18.1448L8.70095 17.1041M8.70095 3.72357L10.485 2.68286L12.2691 3.72357M17.6213 12.1979V13.9819L15.8372 15.0227M5.13282 15.0227L3.34875 13.9819V12.1979" stroke="#0369A1" stroke-width="1.18938" stroke-linecap="round" stroke-linejoin="round"/>
</g>
</svg>
