<svg width="24" height="25" viewBox="0 0 24 25" fill="none" xmlns="http://www.w3.org/2000/svg">
<g id="heroicons-mini/eye">
<g id="Union">
<path d="M12 15.2082C13.6569 15.2082 15 13.8651 15 12.2082C15 10.5513 13.6569 9.2082 12 9.2082C10.3431 9.2082 9 10.5513 9 12.2082C9 13.8651 10.3431 15.2082 12 15.2082Z" fill="#0369A1"/>
<path fill-rule="evenodd" clip-rule="evenodd" d="M0.797106 12.9166C0.62087 12.4587 0.621022 11.951 0.797532 11.4931C2.53054 6.99765 6.89195 3.8082 11.9983 3.8082C17.1072 3.8082 21.4704 7.0008 23.2016 11.4997C23.3779 11.9577 23.3777 12.4654 23.2012 12.9233C21.4682 17.4187 17.1068 20.6082 12.0004 20.6082C6.89157 20.6082 2.52837 17.4156 0.797106 12.9166ZM16.8004 12.2082C16.8004 14.8592 14.6514 17.0082 12.0004 17.0082C9.34948 17.0082 7.20045 14.8592 7.20045 12.2082C7.20045 9.55723 9.34948 7.4082 12.0004 7.4082C14.6514 7.4082 16.8004 9.55723 16.8004 12.2082Z" fill="#0369A1"/>
</g>
</g>
</svg>
