<svg width="24" height="25" viewBox="0 0 24 25" fill="none" xmlns="http://www.w3.org/2000/svg">
<g id="Eye">
<path id="Vector" d="M21.0135 10.8206C20.2915 9.6384 19.3809 8.58241 18.3177 7.69454L20.5569 5.45537C20.7025 5.30454 20.7831 5.10253 20.7813 4.89285C20.7795 4.68317 20.6954 4.4826 20.5471 4.33433C20.3988 4.18605 20.1983 4.10195 19.9886 4.10013C19.7789 4.09831 19.5769 4.17891 19.4261 4.32458L16.991 6.76288C15.4814 5.86627 13.7557 5.39896 12 5.41138C7.04906 5.41138 4.2277 8.80053 2.98656 10.8206C2.60313 11.4408 2.40002 12.1555 2.40002 12.8846C2.40002 13.6137 2.60313 14.3285 2.98656 14.9486C3.7085 16.1308 4.61915 17.1868 5.68236 18.0747L3.44319 20.3139C3.36681 20.3876 3.30589 20.4759 3.26398 20.5734C3.22207 20.671 3.20001 20.7759 3.19908 20.8821C3.19816 20.9883 3.2184 21.0936 3.25861 21.1919C3.29882 21.2902 3.3582 21.3795 3.43328 21.4546C3.50837 21.5296 3.59766 21.589 3.69594 21.6292C3.79422 21.6694 3.89952 21.6897 4.00571 21.6888C4.11189 21.6878 4.21683 21.6658 4.3144 21.6239C4.41196 21.5819 4.50021 21.521 4.57398 21.4446L7.01467 19.0039C8.52233 19.9004 10.246 20.3685 12 20.3578C16.951 20.3578 19.7723 16.9687 21.0135 14.9486C21.3969 14.3285 21.6 13.6137 21.6 12.8846C21.6 12.1555 21.3969 11.4408 21.0135 10.8206ZM4.34926 14.1114C4.12145 13.7427 4.00079 13.318 4.00079 12.8846C4.00079 12.4513 4.12145 12.0265 4.34926 11.6579C5.41606 9.92571 7.82717 7.01079 12 7.01079C13.3278 7.00335 14.6368 7.32334 15.8114 7.94244L14.2016 9.55225C13.4338 9.04252 12.5134 8.81412 11.5964 8.9058C10.6794 8.99749 9.82232 9.40361 9.17067 10.0553C8.51902 10.7069 8.1129 11.5639 8.02121 12.4809C7.92953 13.3979 8.15793 14.3184 8.66766 15.0862L6.82034 16.9335C5.84079 16.1416 5.00489 15.1869 4.34926 14.1114ZM14.3991 12.8846C14.3991 13.5209 14.1464 14.1311 13.6965 14.581C13.2465 15.031 12.6363 15.2837 12 15.2837C11.6438 15.2823 11.2924 15.2003 10.9724 15.0438L14.1592 11.857C14.3157 12.177 14.3978 12.5284 14.3991 12.8846ZM9.60091 12.8846C9.60091 12.2483 9.85368 11.6381 10.3036 11.1882C10.7535 10.7383 11.3637 10.4855 12 10.4855C12.3563 10.4869 12.7076 10.5689 13.0276 10.7254L9.84083 13.9122C9.68431 13.5922 9.60229 13.2409 9.60091 12.8846ZM19.6508 14.1114C18.584 15.8435 16.1729 18.7584 12 18.7584C10.6723 18.7659 9.36321 18.4459 8.18864 17.8268L9.79844 16.217C10.5662 16.7267 11.4867 16.9551 12.4037 16.8634C13.3207 16.7717 14.1777 16.3656 14.8294 15.714C15.481 15.0623 15.8871 14.2053 15.9788 13.2883C16.0705 12.3713 15.8421 11.4508 15.3324 10.683L17.1797 8.83571C18.1593 9.62764 18.9952 10.5823 19.6508 11.6579C19.8786 12.0265 19.9993 12.4513 19.9993 12.8846C19.9993 13.318 19.8786 13.7427 19.6508 14.1114Z" fill="#E2E8F0"/>
</g>
</svg>
